<mxfile host="app.diagrams.net" modified="2021-12-19T06:34:45.281Z" agent="5.0 (Windows NT 10.0; Win64; x64) AppleWebKit/537.36 (KHTML, like Gecko) Chrome/96.0.4664.110 Safari/537.36 Edg/96.0.1054.62" etag="x67f9Vpcd1DMYxMH5B_x" version="16.0.0" type="github">
  <diagram id="FuB94w1wxTKwmmna0Lcv" name="Page-1">
    <mxGraphModel dx="1268" dy="488" grid="0" gridSize="10" guides="1" tooltips="1" connect="1" arrows="1" fold="1" page="0" pageScale="1" pageWidth="850" pageHeight="1100" background="none" math="0" shadow="0">
      <root>
        <mxCell id="0" />
        <mxCell id="1" parent="0" />
        <mxCell id="dPRUDipxpzmfQ3-VgYIL-17" value="&lt;font style=&quot;font-size: 20px&quot;&gt;الاندفاع&lt;/font&gt;" style="text;html=1;strokeColor=none;fillColor=none;align=center;verticalAlign=middle;whiteSpace=wrap;rounded=0;fontSize=20;fontStyle=1" parent="1" vertex="1">
          <mxGeometry x="191.25" y="400" width="60" height="30" as="geometry" />
        </mxCell>
        <mxCell id="dPRUDipxpzmfQ3-VgYIL-19" value="&lt;span style=&quot;font-size: 19px&quot;&gt;Turn Action To Habits&lt;/span&gt;&lt;br&gt;&lt;span style=&quot;font-size: 19px&quot;&gt;Study Account&lt;/span&gt;&lt;br&gt;&lt;span style=&quot;font-size: 19px&quot;&gt;Be Ready To Start What You Want To Do&lt;/span&gt;&lt;br&gt;&lt;span style=&quot;font-size: 19px&quot;&gt;Know What You Do More (Research)&lt;/span&gt;" style="text;html=1;strokeColor=none;fillColor=none;align=center;verticalAlign=middle;whiteSpace=wrap;rounded=0;fontSize=9;" parent="1" vertex="1">
          <mxGeometry x="30" y="470" width="382.5" height="160" as="geometry" />
        </mxCell>
        <mxCell id="dPRUDipxpzmfQ3-VgYIL-21" value="&lt;span style=&quot;font-size: 20px;&quot;&gt;لو كل شغلك بتعمله قبل ال&amp;nbsp; وقت التسليم&quot; &quot;هترعرف ازاي انت بتشتغل احسن قبلها&lt;/span&gt;" style="text;html=1;strokeColor=none;fillColor=none;align=center;verticalAlign=middle;whiteSpace=wrap;rounded=0;fontSize=20;" parent="1" vertex="1">
          <mxGeometry x="460" y="145" width="330" height="30" as="geometry" />
        </mxCell>
        <mxCell id="dPRUDipxpzmfQ3-VgYIL-24" value="" style="group" parent="1" vertex="1" connectable="0">
          <mxGeometry x="80" y="120" width="296" height="80" as="geometry" />
        </mxCell>
        <mxCell id="dPRUDipxpzmfQ3-VgYIL-2" value="" style="endArrow=none;html=1;strokeWidth=2;rounded=1;strokeColor=default;entryX=0;entryY=0.567;entryDx=0;entryDy=0;entryPerimeter=0;" parent="dPRUDipxpzmfQ3-VgYIL-24" target="dPRUDipxpzmfQ3-VgYIL-3" edge="1">
          <mxGeometry width="50" height="50" relative="1" as="geometry">
            <mxPoint x="46" y="30" as="sourcePoint" />
            <mxPoint x="226" y="30" as="targetPoint" />
          </mxGeometry>
        </mxCell>
        <mxCell id="dPRUDipxpzmfQ3-VgYIL-3" value="&lt;font style=&quot;font-size: 15px&quot;&gt;&lt;b&gt;&amp;nbsp;= الحافز&lt;/b&gt;&lt;/font&gt;" style="text;html=1;strokeColor=none;fillColor=none;align=center;verticalAlign=middle;whiteSpace=wrap;rounded=0;strokeWidth=1;" parent="dPRUDipxpzmfQ3-VgYIL-24" vertex="1">
          <mxGeometry x="236" y="13" width="60" height="30" as="geometry" />
        </mxCell>
        <mxCell id="dPRUDipxpzmfQ3-VgYIL-4" value="(التوقع (اقدر؟) * القيمة (شغف" style="text;html=1;strokeColor=none;fillColor=none;align=center;verticalAlign=middle;whiteSpace=wrap;rounded=0;fontSize=15;" parent="dPRUDipxpzmfQ3-VgYIL-24" vertex="1">
          <mxGeometry x="46" width="190" height="30" as="geometry" />
        </mxCell>
        <mxCell id="dPRUDipxpzmfQ3-VgYIL-10" style="edgeStyle=none;rounded=1;orthogonalLoop=1;jettySize=auto;html=1;fontSize=19;strokeColor=default;strokeWidth=1;exitX=0.289;exitY=0.989;exitDx=0;exitDy=0;exitPerimeter=0;entryX=0.137;entryY=1.056;entryDx=0;entryDy=0;entryPerimeter=0;" parent="dPRUDipxpzmfQ3-VgYIL-24" source="dPRUDipxpzmfQ3-VgYIL-8" target="dPRUDipxpzmfQ3-VgYIL-8" edge="1">
          <mxGeometry relative="1" as="geometry">
            <mxPoint x="66" y="70" as="targetPoint" />
            <Array as="points">
              <mxPoint x="86" y="80" />
            </Array>
          </mxGeometry>
        </mxCell>
        <mxCell id="dPRUDipxpzmfQ3-VgYIL-8" value="الوقت * الاندفاع&amp;nbsp;" style="text;html=1;strokeColor=none;fillColor=none;align=center;verticalAlign=middle;whiteSpace=wrap;rounded=0;fontSize=15;" parent="dPRUDipxpzmfQ3-VgYIL-24" vertex="1">
          <mxGeometry x="46" y="30" width="190" height="30" as="geometry" />
        </mxCell>
        <mxCell id="dPRUDipxpzmfQ3-VgYIL-12" style="edgeStyle=none;rounded=1;orthogonalLoop=1;jettySize=auto;html=1;fontSize=19;strokeColor=default;strokeWidth=1;exitX=0.6;exitY=1.011;exitDx=0;exitDy=0;exitPerimeter=0;" parent="dPRUDipxpzmfQ3-VgYIL-24" source="dPRUDipxpzmfQ3-VgYIL-8" edge="1">
          <mxGeometry relative="1" as="geometry">
            <mxPoint x="186" y="60" as="targetPoint" />
            <mxPoint x="164.88" y="60" as="sourcePoint" />
            <Array as="points">
              <mxPoint x="165" y="80" />
            </Array>
          </mxGeometry>
        </mxCell>
        <mxCell id="dPRUDipxpzmfQ3-VgYIL-13" value="&lt;font style=&quot;font-size: 10px;&quot;&gt;Deadline&lt;/font&gt;" style="text;html=1;strokeColor=none;fillColor=none;align=center;verticalAlign=middle;whiteSpace=wrap;rounded=0;fontSize=10;" parent="dPRUDipxpzmfQ3-VgYIL-24" vertex="1">
          <mxGeometry x="179" y="41" width="60" height="30" as="geometry" />
        </mxCell>
        <mxCell id="dPRUDipxpzmfQ3-VgYIL-16" value="&lt;font size=&quot;1&quot;&gt;المنفعة لحظية ولا&lt;/font&gt;" style="text;html=1;strokeColor=none;fillColor=none;align=center;verticalAlign=middle;whiteSpace=wrap;rounded=0;fontSize=19;" parent="dPRUDipxpzmfQ3-VgYIL-24" vertex="1">
          <mxGeometry y="35" width="100" height="30" as="geometry" />
        </mxCell>
        <mxCell id="dPRUDipxpzmfQ3-VgYIL-26" value="&lt;span style=&quot;font-size: 17px;&quot;&gt;اول معاد تسليم كان في الزراعة&lt;/span&gt;" style="text;html=1;strokeColor=none;fillColor=none;align=center;verticalAlign=middle;whiteSpace=wrap;rounded=0;fontSize=17;" parent="1" vertex="1">
          <mxGeometry x="580" y="240" width="330" height="30" as="geometry" />
        </mxCell>
        <mxCell id="dPRUDipxpzmfQ3-VgYIL-27" value="&lt;span style=&quot;font-size: 17px&quot;&gt;طبيعي اني اسوف = اصلا كل الناس بتسوف&lt;/span&gt;" style="text;html=1;strokeColor=none;fillColor=none;align=center;verticalAlign=middle;whiteSpace=wrap;rounded=0;fontSize=17;" parent="1" vertex="1">
          <mxGeometry x="300" y="240" width="330" height="30" as="geometry" />
        </mxCell>
        <mxCell id="dPRUDipxpzmfQ3-VgYIL-29" value="&lt;span style=&quot;font-size: 17px&quot;&gt;خطط للفشل وللتسويف وطرقه علشان تكسبه&lt;/span&gt;" style="text;html=1;strokeColor=none;fillColor=none;align=center;verticalAlign=middle;whiteSpace=wrap;rounded=0;fontSize=17;" parent="1" vertex="1">
          <mxGeometry x="-10" y="240" width="330" height="30" as="geometry" />
        </mxCell>
        <mxCell id="dPRUDipxpzmfQ3-VgYIL-30" value="&lt;font style=&quot;font-size: 25px&quot;&gt;ازاي اعالج كل واحدة من الاربعة&lt;/font&gt;" style="text;html=1;strokeColor=none;fillColor=none;align=center;verticalAlign=middle;whiteSpace=wrap;rounded=0;fontSize=17;fontStyle=5" parent="1" vertex="1">
          <mxGeometry x="280" y="340" width="330" height="30" as="geometry" />
        </mxCell>
        <mxCell id="dPRUDipxpzmfQ3-VgYIL-31" value="&lt;span style=&quot;font-size: 30px ; font-weight: 700 ; text-align: left&quot;&gt;بودكاست حياه اكتر - التسويف&lt;/span&gt;" style="text;html=1;align=center;verticalAlign=middle;resizable=0;points=[];autosize=1;strokeColor=none;fillColor=none;fontSize=25;" parent="1" vertex="1">
          <mxGeometry x="293" y="43" width="305" height="35" as="geometry" />
        </mxCell>
        <mxCell id="dPRUDipxpzmfQ3-VgYIL-41" value="&lt;span style=&quot;font-size: 19px&quot;&gt;خليك عايش في دومات نجاح وفكربيها نفسك&amp;nbsp;&lt;br&gt;استخدم مبدا فرق تسد وانت شغال علي حاجة&lt;br&gt;تخيل نجاحك + الواقع الحالي = شوف هتوصل ازاي + هتشجع تغير واقعك&lt;br&gt;Kill Perfection&amp;nbsp;&lt;br&gt;Inspire&lt;br&gt;Motivation&lt;br&gt;&lt;/span&gt;" style="text;html=1;strokeColor=none;fillColor=none;align=center;verticalAlign=middle;whiteSpace=wrap;rounded=0;fontSize=9;" parent="1" vertex="1">
          <mxGeometry x="433.75" y="455" width="382.5" height="190" as="geometry" />
        </mxCell>
        <mxCell id="dPRUDipxpzmfQ3-VgYIL-42" value="التوقع" style="text;html=1;strokeColor=none;fillColor=none;align=center;verticalAlign=middle;whiteSpace=wrap;rounded=0;fontSize=20;fontStyle=1" parent="1" vertex="1">
          <mxGeometry x="595" y="400" width="60" height="30" as="geometry" />
        </mxCell>
        <mxCell id="dPRUDipxpzmfQ3-VgYIL-48" value="&lt;font style=&quot;font-size: 20px;&quot;&gt;القيمة&lt;/font&gt;" style="text;html=1;strokeColor=none;fillColor=none;align=center;verticalAlign=middle;whiteSpace=wrap;rounded=0;fontSize=20;fontStyle=1" parent="1" vertex="1">
          <mxGeometry x="435" y="700" width="60" height="30" as="geometry" />
        </mxCell>
        <mxCell id="dPRUDipxpzmfQ3-VgYIL-49" value="&lt;span style=&quot;font-size: 19px&quot;&gt;اعمل الحاجات الفرعية اللي بتحبها علشان تدخل المود&lt;/span&gt;&lt;br&gt;&lt;span style=&quot;font-size: 19px&quot;&gt;اشتغل بالمكافات&lt;/span&gt;&lt;br&gt;&lt;span style=&quot;font-size: 19px&quot;&gt;استخدم كلام ايجابي =قول انا هنجح&lt;/span&gt;&lt;br&gt;&lt;span style=&quot;font-size: 19px&quot;&gt;اخلي تسويفي مكلف&lt;/span&gt;&lt;br&gt;&lt;span style=&quot;font-size: 19px&quot;&gt;&amp;nbsp;اجمع اوقات فراغي في حته واحدة = في يوم&lt;br&gt;&lt;/span&gt;&lt;span style=&quot;font-size: 19px&quot;&gt;اعرف قيمة الحاجة اللي انت بتعملها&lt;br&gt;Gamify&lt;br&gt;Kill The Routine&lt;/span&gt;&lt;br&gt;&lt;span style=&quot;font-size: 19px&quot;&gt;Imagine The Results&lt;br&gt;Competition Between Yourself&lt;/span&gt;&lt;br&gt;&lt;span style=&quot;font-size: 19px&quot;&gt;&amp;nbsp;&lt;/span&gt;" style="text;html=1;strokeColor=none;fillColor=none;align=center;verticalAlign=middle;whiteSpace=wrap;rounded=0;fontSize=9;" parent="1" vertex="1">
          <mxGeometry x="273.75" y="770" width="382.5" height="190" as="geometry" />
        </mxCell>
        <mxCell id="dPRUDipxpzmfQ3-VgYIL-50" value="&lt;font style=&quot;font-size: 24px&quot;&gt;اخر حاجة: صدق في نفسك ان انت تقدر تعمل ده كله يا بطل&lt;/font&gt;" style="text;html=1;align=center;verticalAlign=middle;resizable=0;points=[];autosize=1;strokeColor=none;fillColor=none;fontSize=24;" parent="1" vertex="1">
          <mxGeometry x="230" y="1040" width="470" height="30" as="geometry" />
        </mxCell>
      </root>
    </mxGraphModel>
  </diagram>
</mxfile>
